<mxfile host="app.diagrams.net" modified="2023-11-10T08:04:10.672Z" agent="Mozilla/5.0 (Macintosh; Intel Mac OS X 10_15_7) AppleWebKit/537.36 (KHTML, like Gecko) Chrome/119.0.0.0 Safari/537.36" version="22.1.0" etag="nPFtKnBun0qdr8N1Zm7l" type="github">
  <diagram name="Page-1" id="fGouRJOA-zk4v3HrLMm_">
    <mxGraphModel>
      <root>
        <mxCell id="0" />
        <mxCell id="1" parent="0" />
      </root>
    </mxGraphModel>
  </diagram>
</mxfile>
